<svg xmlns="http://www.w3.org/2000/svg" xmlns:svg="http://www.w3.org/2000/svg" enable-background="new 0 0 652 652" version="1.1" xml:space="preserve" viewBox="4 3 445.3 103">
 <style type="text/css">.st0{fill:#69AC1D;}
	.st1{fill:none;}
	.st2{fill:url(#SVGID_1_);}
	.st3{fill:url(#SVGID_2_);}</style>
 <g class="layer">
  <title>Layer 1</title>
  <g id="logos">
   <path class="st0" d="m82.6,36.6c-9,0 -20.7,5 -20.7,23.7c0,16 7.3,23.7 19.3,23.7c11.7,0 20.7,-7.7 20.7,-25c0.3,-20.4 -12.7,-22.4 -19.3,-22.4zm-0.7,39.7c-8,0 -9.3,-9 -9.3,-17c0,-8.7 3,-14.7 9.3,-14.7c6.7,0 9,6 9,16c0.3,9.3 -2.3,15.7 -9,15.7z" id="svg_1"/>
   <path class="st0" d="m139.5,71.6l4,7c-3.3,3 -9,5 -15.3,5c-13,0 -20.7,-8.3 -20.7,-23.3c0,-18 11,-24 20.7,-24c5.7,0 12.3,2.3 16.3,8.3l-6.7,5.7c-2.3,-3 -5.7,-5.7 -9.7,-5.7c-6,0 -10,5 -10,15c0,9.3 3.3,15.3 11.3,15.3c3.5,0.7 6.5,-0.6 10.1,-3.3" id="svg_2"/>
   <path class="st0" d="m186.2,74.3l0,-34.3c-6.3,-2.3 -13,-3 -15.7,-3c-15.3,0 -23,10 -23,25.7c0,12.7 5,21.7 17.3,21.7c5,0 9.3,-2 12.3,-6l0.3,0l0.7,4.7l9,0l-0.9,-8.8zm-10.7,-5.7c0,3.7 -3.3,7.7 -8.7,7.7c-7.3,0 -9.3,-7 -9.3,-14.3c0,-9.7 3,-17.7 11.3,-17.7c2.7,0 5.3,0.7 6.7,1c0,0 0,23.3 0,23.3z" id="svg_3"/>
   <path class="st0" d="m215.8,36.6c-4.3,0 -8,1.3 -10.3,3.7l0,-19.3l-10.7,0l0,59.3c3.7,2 11.3,3.7 17.7,3.7c13.3,0 21,-8.7 21,-26c0,-13.7 -6.7,-21.4 -17.7,-21.4zm-3,40c-3,0 -6,-1 -7.7,-1.7l0,-23.7c0,-4 3.7,-6.7 7.7,-6.7c8.3,0 10,8.3 10,15.3c0.4,12.1 -3.6,16.8 -10,16.8z" id="svg_4"/>
   <path class="st0" d="m276.5,38l0,37.3l0.7,7.3l-9,0l-0.7,-5.3l-0.3,0c-3,4.3 -7.7,6.3 -13,6.3c-9.7,0 -14.7,-5 -14.7,-15.7l0,-30.3l10.7,0l0,28.7c0,5.3 1,9.3 7,9.3c4.7,0 8.7,-4.3 8.7,-8.7l0,-29.3l10.7,0l0,0.4l-0.1,0z" id="svg_5"/>
   <path class="st0" d="m296.1,21l0,47c0,5.7 1,7.7 4.7,7.7c1.7,0 3.7,-0.7 5.7,-1.3l2.3,7c-2.3,1.7 -6.7,2.7 -10.7,2.7c-12,0 -12.7,-7 -12.7,-13.7l0,-49.4l10.7,0z" id="svg_6"/>
   <path class="st0" d="m349.1,74.3l0,-34.3c-6.3,-2.3 -13,-3 -15.7,-3c-15.3,0 -23,10 -23,25.7c0,12.7 5,21.7 17.3,21.7c5,0 9.3,-2 12.3,-6l0.3,0l0.7,4.7l9,0l-0.9,-8.8zm-10.7,-5.7c0,3.7 -3.3,7.7 -8.7,7.7c-7.3,0 -9.3,-7 -9.3,-14.3c0,-9.7 3,-17.7 11.3,-17.7c2.7,0 5.3,0.7 6.7,1l0,23.3z" id="svg_7"/>
   <path class="st0" d="m370.1,82.6l-10.7,0l0,-37.3l-0.7,-7.3l8.7,0l1,6.3c2,-5 6.3,-7.7 10.7,-7.7c2.7,0 5,0.7 7,1.7l-2,9c-2,-1 -4,-1.7 -6.3,-1.7c-4.7,0 -8,3.7 -8,9l0,28l0.3,0z" id="svg_8"/>
   <path class="st0" d="m418.7,38l0,27.3c0,5 -3,7.7 -8.3,7.7c-7,0 -7.7,-4.3 -7.7,-10l0,-25.3l-10.7,0l0,27c0,9 4.7,13.3 11.7,14.3c-5,3.3 -9.3,8.7 -9.3,15.3c0,7 4.7,11.7 14.3,11.7c11,0 17.7,-6.3 19.3,-17c0.3,-3 0.7,-9 0.7,-12.3l0,-38.7l-10,0zm0,46.9c0,8 -2,13.7 -8.3,13.7c-4,0 -6,-2.3 -6,-5.7c0,-7.3 6.3,-11.7 14.3,-15.7l0,7.7z" id="svg_9"/>
   <path class="st0" d="m443,71.9c4,0 6.3,2.3 6.3,6c0,3.3 -2.3,6 -6,6c-4.3,0 -6.3,-2.3 -6.3,-6c0,-3.3 2.4,-6 6,-6" id="svg_10"/>
   <path class="st1" d="m61.9,3l0,0l0,0z" id="svg_14"/>
   <linearGradient gradientTransform="matrix(12.3872 20.8103 -20.8103 12.3872 4875.1045 847.5992)" gradientUnits="userSpaceOnUse" id="SVGID_1_" x1="-121.45" x2="-119.9" y1="160.6" y2="160.6">
    <stop offset="0" stop-color="#69AC1D"/>
    <stop offset="0.3" stop-color="#67AA1D"/>
    <stop offset="0.47" stop-color="#60A11D"/>
    <stop offset="0.61" stop-color="#54931C"/>
    <stop offset="0.74" stop-color="#42801B"/>
    <stop offset="0.85" stop-color="#2C661A"/>
    <stop offset="0.95" stop-color="#114719"/>
    <stop offset="1" stop-color="#003418"/>
   </linearGradient>
   <polygon class="st2" id="svg_15" points="16.900001525878906,37.600006103515625 16.900001525878906,37.600006103515625 15.599998474121094,35 4,41 26.599998474121094,82.60000610351562 32.30000305175781,66.29998779296875 "/>
   <linearGradient gradientTransform="matrix(30.7139 0 0 30.7139 4059.7961 -4682.9883)" gradientUnits="userSpaceOnUse" id="SVGID_2_" x1="-130.76" x2="-129.21" y1="162.56" y2="162.56">
    <stop offset="0" stop-color="#B3D6A2"/>
    <stop offset="1" stop-color="#69AC1D"/>
   </linearGradient>
   <path class="st3" d="m63.6,3c-4.7,6.7 -11.3,17.3 -17,28.3c-10,20.7 -18,44.6 -18.3,45.6l-2,5.7l14.7,0l1,-2.7c0.3,-1 8.3,-25 18.3,-45.6c4.3,-9 9.3,-17.3 13.7,-23.7l-10.4,-7.6l0,0z" id="svg_16"/>
  </g>
  <g id="svg_17">
   <path class="st0" d="m82.6,36.6c-9,0 -20.7,5 -20.7,23.7c0,16 7.3,23.7 19.3,23.7c11.7,0 20.7,-7.7 20.7,-25c0.3,-20.4 -12.7,-22.4 -19.3,-22.4zm-0.7,39.7c-8,0 -9.3,-9 -9.3,-17c0,-8.7 3,-14.7 9.3,-14.7c6.7,0 9,6 9,16c0.3,9.3 -2.3,15.7 -9,15.7z" id="svg_18"/>
   <path class="st0" d="m139.5,71.6l4,7c-3.3,3 -9,5 -15.3,5c-13,0 -20.7,-8.3 -20.7,-23.3c0,-18 11,-24 20.7,-24c5.7,0 12.3,2.3 16.3,8.3l-6.7,5.7c-2.3,-3 -5.7,-5.7 -9.7,-5.7c-6,0 -10,5 -10,15c0,9.3 3.3,15.3 11.3,15.3c3.5,0.7 6.5,-0.6 10.1,-3.3" id="svg_19"/>
   <path class="st0" d="m186.2,74.3l0,-34.3c-6.3,-2.3 -13,-3 -15.7,-3c-15.3,0 -23,10 -23,25.7c0,12.7 5,21.7 17.3,21.7c5,0 9.3,-2 12.3,-6l0.3,0l0.7,4.7l9,0l-0.9,-8.8zm-10.7,-5.7c0,3.7 -3.3,7.7 -8.7,7.7c-7.3,0 -9.3,-7 -9.3,-14.3c0,-9.7 3,-17.7 11.3,-17.7c2.7,0 5.3,0.7 6.7,1c0,0 0,23.3 0,23.3z" id="svg_20"/>
   <path class="st0" d="m215.8,36.6c-4.3,0 -8,1.3 -10.3,3.7l0,-19.3l-10.7,0l0,59.3c3.7,2 11.3,3.7 17.7,3.7c13.3,0 21,-8.7 21,-26c0,-13.7 -6.7,-21.4 -17.7,-21.4zm-3,40c-3,0 -6,-1 -7.7,-1.7l0,-23.7c0,-4 3.7,-6.7 7.7,-6.7c8.3,0 10,8.3 10,15.3c0.4,12.1 -3.6,16.8 -10,16.8z" id="svg_21"/>
   <path class="st0" d="m276.5,38l0,37.3l0.7,7.3l-9,0l-0.7,-5.3l-0.3,0c-3,4.3 -7.7,6.3 -13,6.3c-9.7,0 -14.7,-5 -14.7,-15.7l0,-30.3l10.7,0l0,28.7c0,5.3 1,9.3 7,9.3c4.7,0 8.7,-4.3 8.7,-8.7l0,-29.3l10.7,0l0,0.4l-0.1,0z" id="svg_22"/>
   <path class="st0" d="m296.1,21l0,47c0,5.7 1,7.7 4.7,7.7c1.7,0 3.7,-0.7 5.7,-1.3l2.3,7c-2.3,1.7 -6.7,2.7 -10.7,2.7c-12,0 -12.7,-7 -12.7,-13.7l0,-49.4l10.7,0z" id="svg_23"/>
   <path class="st0" d="m349.1,74.3l0,-34.3c-6.3,-2.3 -13,-3 -15.7,-3c-15.3,0 -23,10 -23,25.7c0,12.7 5,21.7 17.3,21.7c5,0 9.3,-2 12.3,-6l0.3,0l0.7,4.7l9,0l-0.9,-8.8zm-10.7,-5.7c0,3.7 -3.3,7.7 -8.7,7.7c-7.3,0 -9.3,-7 -9.3,-14.3c0,-9.7 3,-17.7 11.3,-17.7c2.7,0 5.3,0.7 6.7,1l0,23.3z" id="svg_24"/>
   <path class="st0" d="m370.1,82.6l-10.7,0l0,-37.3l-0.7,-7.3l8.7,0l1,6.3c2,-5 6.3,-7.7 10.7,-7.7c2.7,0 5,0.7 7,1.7l-2,9c-2,-1 -4,-1.7 -6.3,-1.7c-4.7,0 -8,3.7 -8,9l0,28l0.3,0z" id="svg_25"/>
   <path class="st0" d="m418.7,38l0,27.3c0,5 -3,7.7 -8.3,7.7c-7,0 -7.7,-4.3 -7.7,-10l0,-25.3l-10.7,0l0,27c0,9 4.7,13.3 11.7,14.3c-5,3.3 -9.3,8.7 -9.3,15.3c0,7 4.7,11.7 14.3,11.7c11,0 17.7,-6.3 19.3,-17c0.3,-3 0.7,-9 0.7,-12.3l0,-38.7l-10,0zm0,46.9c0,8 -2,13.7 -8.3,13.7c-4,0 -6,-2.3 -6,-5.7c0,-7.3 6.3,-11.7 14.3,-15.7l0,7.7z" id="svg_26"/>
   <path class="st0" d="m443,71.9c4,0 6.3,2.3 6.3,6c0,3.3 -2.3,6 -6,6c-4.3,0 -6.3,-2.3 -6.3,-6c0,-3.3 2.4,-6 6,-6" id="svg_27"/>
   <path class="st1" d="m61.9,3l0,0l0,0z" id="svg_28"/>
   <linearGradient gradientTransform="matrix(12.3872 20.8103 -20.8103 12.3872 4875.1045 847.5992)" gradientUnits="userSpaceOnUse" id="svg_29" x1="-121.45" x2="-119.9" y1="160.6" y2="160.6">
    <stop id="svg_30" offset="0" stop-color="#69AC1D"/>
    <stop id="svg_31" offset="0.3" stop-color="#67AA1D"/>
    <stop id="svg_32" offset="0.47" stop-color="#60A11D"/>
    <stop id="svg_33" offset="0.61" stop-color="#54931C"/>
    <stop id="svg_34" offset="0.74" stop-color="#42801B"/>
    <stop id="svg_35" offset="0.85" stop-color="#2C661A"/>
    <stop id="svg_36" offset="0.95" stop-color="#114719"/>
    <stop id="svg_37" offset="1" stop-color="#003418"/>
   </linearGradient>
   <polygon class="st2" id="svg_38" points="16.900001525878906,37.600006103515625 16.900001525878906,37.600006103515625 15.599998474121094,35 4,41 26.599998474121094,82.60000610351562 32.30000305175781,66.29998779296875 "/>
   <linearGradient gradientTransform="matrix(30.7139 0 0 30.7139 4059.7961 -4682.9883)" gradientUnits="userSpaceOnUse" id="svg_39" x1="-130.76" x2="-129.21" y1="162.56" y2="162.56">
    <stop id="svg_40" offset="0" stop-color="#B3D6A2"/>
    <stop id="svg_41" offset="1" stop-color="#69AC1D"/>
   </linearGradient>
   <path class="st3" d="m63.6,3c-4.7,6.7 -11.3,17.3 -17,28.3c-10,20.7 -18,44.6 -18.3,45.6l-2,5.7l14.7,0l1,-2.7c0.3,-1 8.3,-25 18.3,-45.6c4.3,-9 9.3,-17.3 13.7,-23.7l-10.4,-7.6l0,0z" id="svg_42"/>
  </g>
 </g>
</svg>